<svg xmlns="http://www.w3.org/2000/svg" width="1200" height="630" viewBox="0 0 1200 630">
  <rect width="1200" height="630" fill="#F8F9FC"/>
  <rect x="0" y="0" width="1200" height="6" fill="#3B5998"/>
  <text x="600" y="200" text-anchor="middle" font-family="system-ui, sans-serif" font-weight="700" font-size="72" fill="#1A1D23">DefenseBudget Dash</text>
  <text x="600" y="280" text-anchor="middle" font-family="system-ui, sans-serif" font-weight="400" font-size="32" fill="#6B7280">Compare Global Military Spending by Country</text>
  <text x="600" y="380" text-anchor="middle" font-family="monospace" font-weight="700" font-size="80" fill="#3B5998">$2.2 Trillion</text>
  <text x="600" y="440" text-anchor="middle" font-family="system-ui, sans-serif" font-weight="400" font-size="24" fill="#9CA3AF">40+ Nations · Interactive Charts · Free &amp; Open Data</text>
  <rect x="80" y="500" width="300" height="8" rx="4" fill="#3B5998" opacity="0.8"/>
  <rect x="80" y="520" width="220" height="8" rx="4" fill="#3B5998" opacity="0.6"/>
  <rect x="80" y="540" width="160" height="8" rx="4" fill="#3B5998" opacity="0.4"/>
  <rect x="80" y="560" width="110" height="8" rx="4" fill="#3B5998" opacity="0.3"/>
  <rect x="80" y="580" width="70" height="8" rx="4" fill="#3B5998" opacity="0.2"/>
  <path d="M900 460l-60 30v45c0 41.6 28.8 80.6 60 90 31.2-9.4 60-48.4 60-90v-45l-60-30z" fill="none" stroke="#3B5998" stroke-width="3" opacity="0.3"/>
</svg>
